<?xml version="1.0" encoding="utf-8"?>
<!-- Generator: Adobe Illustrator 27.7.0, SVG Export Plug-In . SVG Version: 6.00 Build 0)  -->
<svg version="1.1" id="For_Sheets" xmlns="http://www.w3.org/2000/svg" xmlns:xlink="http://www.w3.org/1999/xlink" x="0px" y="0px"
	 viewBox="0 0 173.3 173.3" style="enable-background:new 0 0 173.3 173.3;" xml:space="preserve">
<style type="text/css">
	.st0{fill:#FFFFFF;}
	.st1{fill:#BF311A;}
</style>
<g>
	<g>
		<path class="st0" d="M11.1,173.2c-6,0-10.9-4.9-10.9-10.9V11C0.1,5,5,0.1,11.1,0.1h151.2c6,0,10.9,4.9,10.9,10.9v151.2
			c0,6-4.9,10.9-10.9,10.9H11.1z"/>
		<path d="M162.2,0.2c6,0,10.8,4.8,10.8,10.8v151.2c0,6-4.8,10.8-10.8,10.8H11c-6,0-10.8-4.8-10.8-10.8V11.1c0-6,4.8-10.8,10.8-10.8
			H162.2 M162.2,0H11C5,0,0,5,0,11.1v151.2c0,6.1,5,11.1,11,11.1h151.2c6.1,0,11-5,11-11.1V11.1C173.3,5,168.3,0,162.2,0L162.2,0z"
			/>
	</g>
	<path d="M11,170.4c-4.5,0-8.1-3.6-8.1-8.1V11.1C2.9,6.6,6.6,3,11,3h151.2c4.5,0,8.1,3.6,8.1,8.1v151.2c0,4.5-3.6,8.1-8.1,8.1H11z
		 M162.2,165.9c2,0,3.6-1.6,3.6-3.6V11.1c0-2-1.6-3.6-3.6-3.6H11c-2,0-3.6,1.6-3.6,3.6v151.2c0,2,1.6,3.6,3.6,3.6H162.2z"/>
	<path d="M110.3,62.1L86.6,27.3L63,62.1c-0.4,0.6-0.6,1.3-0.6,2c0,2,1.6,3.6,3.6,3.6c0.5,0,0.9-0.1,1.3-0.2l10.2-3.9v80.6h18.4V63.6
		l10.2,3.9c0.4,0.2,0.8,0.2,1.3,0.2c2,0,3.6-1.6,3.6-3.6C110.9,63.4,110.7,62.7,110.3,62.1z"/>
	<g>
		<path class="st1" d="M86.6,11.1C44.9,11.1,11,44.9,11,86.7s33.8,75.6,75.6,75.6s75.6-33.8,75.6-75.6S128.4,11.1,86.6,11.1z
			 M86.6,147.9c-33.8,0-61.2-27.4-61.2-61.2c0-14.3,4.9-27.5,13.1-37.9l86,86C114.1,142.9,101,147.9,86.6,147.9z M134.7,124.5
			l-86-86c10.4-8.2,23.6-13.1,37.9-13.1c33.8,0,61.2,27.4,61.2,61.2C147.8,101,142.9,114.1,134.7,124.5z"/>
	</g>
</g>
</svg>
