<?xml version="1.0" encoding="utf-8"?>
<svg version="1.1" id="For_Sheets" xmlns="http://www.w3.org/2000/svg" xmlns:xlink="http://www.w3.org/1999/xlink" x="0px" y="0px"
	 viewBox="0 0 173.3 173.3" xml:space="preserve">
<g>
	<g>
		<circle fill="#FFFFFF" cx="86.65" cy="86.65" r="80"/>
	</g>
	<path d="M110.3,62.1L86.6,27.3L63,62.1c-0.4,0.6-0.6,1.3-0.6,2c0,2,1.6,3.6,3.6,3.6c0.5,0,0.9-0.1,1.3-0.2l10.2-3.9v80.6h18.4V63.6
		l10.2,3.9c0.4,0.2,0.8,0.2,1.3,0.2c2,0,3.6-1.6,3.6-3.6C110.9,63.4,110.7,62.7,110.3,62.1z"/>
	<g>
		<path fill="#BF311A" d="M86.6,11.1C44.9,11.1,11,44.9,11,86.7s33.8,75.6,75.6,75.6s75.6-33.8,75.6-75.6S128.4,11.1,86.6,11.1z
			 M86.6,147.9c-33.8,0-61.2-27.4-61.2-61.2c0-14.3,4.9-27.5,13.1-37.9l86,86C114.1,142.9,101,147.9,86.6,147.9z M134.7,124.5
			l-86-86c10.4-8.2,23.6-13.1,37.9-13.1c33.8,0,61.2,27.4,61.2,61.2C147.8,101,142.9,114.1,134.7,124.5z"/>
	</g>
</g>
</svg>
